<svg xmlns="http://www.w3.org/2000/svg" width="1200" height="650" viewBox="0 0 1200 650"><title>ME3592 — Spur Gear Terminology</title><rect width="1200" height="650" fill="white"/><style>text{font-family:Arial,sans-serif;fill:#172033}.label{font-size:22px}.title{font-size:30px;font-weight:700}</style><text x="600" y="45" text-anchor="middle" class="title">ME3592 — Spur Gear Terminology</text><circle cx="600" cy="340" r="210" fill="#f1f5f9" stroke="#334155" stroke-width="5"/><circle cx="600" cy="340" r="135" fill="none" stroke="#2563eb" stroke-width="3" stroke-dasharray="10 8"/><circle cx="600" cy="340" r="80" fill="none" stroke="#16a34a" stroke-width="3" stroke-dasharray="8 8"/><g fill="#cbd5e1" stroke="#334155" stroke-width="3"><rect x="588" y="105" width="24" height="65" transform="rotate(0 600 340)"/><rect x="588" y="105" width="24" height="65" transform="rotate(45 600 340)"/><rect x="588" y="105" width="24" height="65" transform="rotate(90 600 340)"/><rect x="588" y="105" width="24" height="65" transform="rotate(135 600 340)"/><rect x="588" y="105" width="24" height="65" transform="rotate(180 600 340)"/><rect x="588" y="105" width="24" height="65" transform="rotate(225 600 340)"/><rect x="588" y="105" width="24" height="65" transform="rotate(270 600 340)"/><rect x="588" y="105" width="24" height="65" transform="rotate(315 600 340)"/></g><line x1="600" y1="340" x2="810" y2="340" stroke="#2563eb" stroke-width="3"/><text x="820" y="330" class="label">Pitch circle</text><text x="180" y="180" class="label">Addendum</text><text x="180" y="215" class="label">Dedendum</text><text x="180" y="250" class="label">Tooth thickness</text><text x="180" y="285" class="label">Width of space</text><text x="600" y="590" text-anchor="middle" class="label">Checks: runout • pitch variation • tooth profile • tooth thickness • lead</text></svg>